<svg xmlns="http://www.w3.org/2000/svg" width="91.152" height="140.755" viewBox="0 0 91.152 140.755"><g transform="translate(-285 -507.008)"><g transform="translate(274.805 504.428)"><g transform="translate(10.195 53.135)"><path d="M84.07,40.045c-.384-1.053.177-2.1.487-3.123A63.8,63.8,0,0,1,88.57,26.558a1.478,1.478,0,0,0-1.648-2.144,32.089,32.089,0,0,1-6.392-.07c-.772-2-2.833-2.827-4.454-3.978-1.84-1.149-3.631-2.469-5.545-3.476a1.117,1.117,0,0,0-1.966-.507c-1.938-1.206-4.262-.982-6.339-1.772-1.578-2.552-1.7-5.236-2.115-7.7-.182-1.073.011-2.109-.722-3.066C56.928.381,47.2-1.121,43.61.932c-1.931-1.2-1.978.977-2.284,2.324A4.275,4.275,0,0,0,40.857,5.5c-2.074,4.334-6.82,6.294-11.071,7.881a1.331,1.331,0,0,0-1.8-.024,28.018,28.018,0,0,0-10.346,4.409c-3.507,1.026-5.976,3.879-7.762,6.939a1.323,1.323,0,0,0-.186.953C4.2,33.708,1.577,43.349,1.209,53.086-2.323,55.207,2.887,74.254,4.1,78.208l0,0c.787,1.394,1.68,5.37,3.649,5.063C9.1,84.8,11.257,84.5,13.09,84.614a6.711,6.711,0,0,0,.2,3.589,1.44,1.44,0,0,0,2.775-.076c18.254,3.548,36.984.717,55.444,1.25,5.337.038,10.674.2,16,.583A1.466,1.466,0,0,0,88.97,88.5c-1.145-12.184-2.22-28.211-3.5-40.276A40.918,40.918,0,0,0,84.07,40.045Z" transform="translate(0.855 0)" fill="#fff"/><path d="M90.11,88.612a.555.555,0,0,1-.438-.206,2.145,2.145,0,0,1-.573-1.435c-.017-.279-.026-.563-.035-.838-.006-.19-.013-.386-.022-.579-.045-.994-.1-2.026-.173-3.067-.142-2.123-.3-4.184-.472-6.124-.37-4.193-.946-8.436-1.5-12.54-.393-2.9-.8-5.889-1.129-8.839-.41-3.664-.693-7.3-.84-10.814-.074-1.771-.1-3.594-.085-5.418.006-.621.034-1.281.085-2.017-1.2,2.723-2.468,5.44-3.772,8.074l-.312.63a54.929,54.929,0,0,1-2.693,4.951l-.172.27-.133.213c-.382.619-.906,1.466-1.568,1.648a2.515,2.515,0,0,1-.671.075c-.189,0-.381-.012-.567-.023-.153-.009-.3-.018-.436-.021l-.475-.008c-.36-.005-.733-.011-1.1-.026a7.7,7.7,0,0,1-1.718-.254,2,2,0,0,1-.265-.088A5.458,5.458,0,0,1,68.5,54.245a17.58,17.58,0,0,1-2.469.773l-.3.074c-.128.032-.262.062-.391.091a2.818,2.818,0,0,0-2.038,1.105l-.117.2a5.078,5.078,0,0,1-1.36,1.659,7.256,7.256,0,0,1-2.254,1.046c-.652.2-1.326.363-1.978.521l-.482.118-.224.056-.537.132c-.36.087-.731.177-1.092.276-.248.068-.471.13-.69.206a2.388,2.388,0,0,0-.665.387,1.584,1.584,0,0,1-1.533.97c-.039,0-.077,0-.115,0a2.051,2.051,0,0,1-.939-.314c-.322.274-.668.531-1,.781-.177.132-.36.268-.536.4-.724.561-1.438,1.107-2.121,1.621-1.569,1.183-3.019,2.251-4.432,3.263-2.529,1.812-5.255,3.645-8.1,5.449-1.031.653-2.25,1.42-3.467,2.16l.124.046.247.094c1.088.406,1.29.908,1.346,1.251a.842.842,0,0,1-.132.657.871.871,0,0,1-.613.321,1.187,1.187,0,0,1-.144.009,2.013,2.013,0,0,1-1.377-.806c-.074-.08-.152-.158-.228-.234-.1-.1-.211-.212-.308-.324a1.184,1.184,0,0,1-.166-.266c-1.278.754-2.422,1.39-3.494,1.946l-.3.152c-1.272.651-2.55,1.34-3.787,2.006h0c-1.61.868-3.274,1.765-4.944,2.588a16.178,16.178,0,0,1-2.69,1.071,12.437,12.437,0,0,1,.262,3.01v.128a.711.711,0,0,1-.2.519.82.82,0,0,1-.582.226.8.8,0,0,1-.578-.228.691.691,0,0,1-.185-.518l.016-.479a12.264,12.264,0,0,1,.267-2.425,9.579,9.579,0,0,1-1.562.124,11.649,11.649,0,0,1-4.742-1,6.884,6.884,0,0,1-1.578-1.408A14.567,14.567,0,0,1,4.1,77.955a44.844,44.844,0,0,1-2.812-8.873,58.845,58.845,0,0,1-1.1-17.052A62.775,62.775,0,0,1,3.833,35.326a64.365,64.365,0,0,1,3.458-7.8l.164-.311a37.107,37.107,0,0,1,4.654-7.084,23.232,23.232,0,0,1,6.948-5.252,36.956,36.956,0,0,1,3.922-1.712c.187-.07.387-.138.648-.22a8.888,8.888,0,0,1,4.686-1.709h.1a.409.409,0,0,1,.278.111,2.332,2.332,0,0,1,.245.056.472.472,0,0,1,.345.453l-.009.068a.531.531,0,0,1-.021.1,1,1,0,0,1,.178.044c1.068-.3,2.138-.714,3.173-1.113.534-.206,1.085-.418,1.624-.611l.36-.127.146-.051a11.113,11.113,0,0,0,3.625-1.788A9.6,9.6,0,0,0,40.839,5,21.337,21.337,0,0,0,41.85,2.087c.193-.657.392-1.337.632-1.991a.142.142,0,0,1,.136-.1.13.13,0,0,1,.133.133,17.183,17.183,0,0,1-.695,5.38,9.443,9.443,0,0,1-2.813,4.546,13.249,13.249,0,0,1-4.231,2.089c-.245.087-.5.176-.743.266l-.193.071-3.017,1.125c-.115.043-.232.089-.345.134a3.989,3.989,0,0,1-1.38.371,1.226,1.226,0,0,1-.646-.17c.171.423.336.857.5,1.277a30.1,30.1,0,0,0,1.253,2.968,21.166,21.166,0,0,0,3.2,4.676A18.444,18.444,0,0,0,40.5,27.6a21.846,21.846,0,0,0,8.186,1.539,23.882,23.882,0,0,0,5.295-.6c4.308-.982,7.63-2.791,9.872-5.379A13.184,13.184,0,0,0,66.13,19.36a15.562,15.562,0,0,0,1.023-4.349.645.645,0,0,1-.1.009.624.624,0,0,1-.135-.015,9.339,9.339,0,0,1-2.64-1.169L64.2,13.79a7.515,7.515,0,0,1-2.135-1.723A12.787,12.787,0,0,1,60.933,9a22.739,22.739,0,0,1-.28-3.527c0-.052.146-.092.269-.092.079,0,.132.017.145.046A8.493,8.493,0,0,1,61.5,7.243a10.3,10.3,0,0,0,.293,1.391l.054.157c.05.146.1.295.15.452a5.641,5.641,0,0,0,.966,2.035,9.046,9.046,0,0,0,3.57,2.119c.228.092.463.187.69.282A1.123,1.123,0,0,1,68.4,12.645a1.2,1.2,0,0,1,.86.338,1.068,1.068,0,0,1,.291.79c0,.053,0,.106,0,.159q0,.04,0,.08c.186.1.361.218.508.317l.155.106a20.7,20.7,0,0,0,1.811,1.122c.779.422,1.6.794,2.395,1.154.445.2.9.41,1.352.625A18.966,18.966,0,0,1,79.3,19.524a18.325,18.325,0,0,1,1.481,1.3l.127.126c.072.072.149.146.223.218a4.554,4.554,0,0,1,1.06,1.311c.057.132.337.43.49.439,2.6.17,4.912.4,7.076.7a.824.824,0,0,1,.65.335.628.628,0,0,1-.026.57c-.766,1.727-3.812,8.736-4.6,10.575.048.7.038,1.481.029,2.233-.009.717-.018,1.459.023,2.129.121,1.944.282,3.965.481,6.006.543,5.584,1.318,11.238,2.068,16.706.21,1.532.427,3.115.636,4.673.5,3.716.953,7.47,1.341,10.7.229,1.9.406,3.673.542,5.418.061.772.114,1.534.16,2.265l.041.67c.006.088.013.175.019.262a2.957,2.957,0,0,1-.355,2.11A.845.845,0,0,1,90.11,88.612ZM2.238,64.087c.257,1.928.609,3.847,1.048,5.7l.1.411A44.972,44.972,0,0,0,5.6,77.286a12.373,12.373,0,0,0,1.888,3.1A8.749,8.749,0,0,0,8.765,81.6a5.919,5.919,0,0,0,3.252.977,6.615,6.615,0,0,0,2.752-.415l.007,0a25.818,25.818,0,0,0,3.654-1.71l.008,0c.267-.142.544-.29.814-.431l.15-.078c.591-.306,1.22-.636,1.922-1.011a2.751,2.751,0,0,1,.4-1.8.649.649,0,0,1,.578-.354.788.788,0,0,1,.765.693l0,.026a3.436,3.436,0,0,0,.067.456c4.022-2.2,8.133-4.642,12.566-7.455,2.679-1.7,5.322-3.447,7.856-5.195,1.3-.9,2.6-1.816,3.84-2.722.654-.477,1.321-.97,1.983-1.465.139-.1.277-.212.412-.316s.27-.209.406-.311c-.065-.08-.127-.16-.195-.249a11.239,11.239,0,0,1-2.022-4.6,18.3,18.3,0,0,1-.327-3.048l-.013-.442a10.759,10.759,0,0,1,.112-2.245l-.19.1,0,0c-.124.067-.25.135-.374.206-.758.429-1.4.79-2.048,1.156-1.214.681-2.654,1.482-4.133,2.256-2.844,1.491-5.249,2.651-7.568,3.65l-1.253.54a66.291,66.291,0,0,1-6.63,2.551c-1.2.368-2.457.7-3.855,1.027l.523.614a1.021,1.021,0,0,1,.253.758.865.865,0,0,1-.345.6.891.891,0,0,1-.547.191.952.952,0,0,1-.794-.447l-.541-.833a1.5,1.5,0,0,1-.219-.521c-.583.122-1.169.24-1.793.36l-1.133.216a16.04,16.04,0,0,0-4.632,1.722.529.529,0,0,1-.247.076.185.185,0,0,1-.19-.129c-.044-.138.04-.378.328-.579A16.8,16.8,0,0,1,17.608,61.2l.092-.025c.687-.188,1.379-.386,2.059-.588a2.917,2.917,0,0,1-.11-.867c.012-.44.042-.889.07-1.323.017-.25.034-.509.047-.764.075-1.411.171-2.839.292-4.364.045-.576.1-1.142.151-1.684-.123-.066-.242-.14-.358-.212A3.239,3.239,0,0,0,19.115,51l-.069-.02a.326.326,0,0,1-.267-.347.424.424,0,0,1,.366-.385,3.019,3.019,0,0,1,.37-.023,3.258,3.258,0,0,1,.68.074c.056.012.106.025.153.04.066-.537.138-1.06.215-1.554.04-.257.079-.521.116-.777v0a18.975,18.975,0,0,1,.69-3.326.139.139,0,0,1,.129-.092.111.111,0,0,1,.1.062,8.978,8.978,0,0,1,.722,3.754v.01q.008.167.017.331l.009.163c.075,1.308.1,2.733.063,4.486-.027,1.446-.076,2.953-.15,4.606-.006.134-.011.271-.015.4a10.528,10.528,0,0,1-.117,1.448,86.143,86.143,0,0,0,11.21-4.506c2.551-1.249,5.1-2.557,7.567-3.888.552-.3,1.115-.6,1.659-.889l.012-.006c.684-.365,1.391-.743,2.085-1.119l1.312-.713.656-.358.209-.115a3.453,3.453,0,0,1,1.632-.576h.02a.7.7,0,0,1,.519.244,2.221,2.221,0,0,1,1.279-.436H50.3c.828-1.144,1.513-2.056,2.153-2.87l.547-.7a18.325,18.325,0,0,1,3.156-3.334,7.7,7.7,0,0,1,1.749-.967.923.923,0,0,1-.415-.225,3.433,3.433,0,0,1-.75-2.055c-.014-.095-.027-.186-.041-.273a7.01,7.01,0,0,1,.046-2.291.354.354,0,0,1,.369-.269.322.322,0,0,1,.311.18c.086.2.176.393.262.583.174.383.354.779.513,1.181l.07.181a6.871,6.871,0,0,0,.3.648,3.106,3.106,0,0,1,.464,1.474.946.946,0,0,1-.181.517c.365-.122.739-.235,1.1-.345l.019-.006.444-.136c1.475-.456,3.194-.977,4.929-1.385.449-.105.9-.2,1.333-.289a22.521,22.521,0,0,1,.977-3.272,2.727,2.727,0,0,1-.671-.541c-.09-.09-.183-.183-.283-.272a4.257,4.257,0,0,1-.542-.617c-.076-.1-.155-.2-.237-.3a.522.522,0,0,1-.071-.547.4.4,0,0,1,.374-.235h.02l.121.005a3.025,3.025,0,0,1,1.275.273l.143.074a4.852,4.852,0,0,1,.6.357c.226-.52.472-1.064.774-1.712l.342-.731.264-.569a45.736,45.736,0,0,1,2.615-5.077,2.628,2.628,0,0,1,2.1-1.355c.242-.02.5-.029.785-.029.46,0,.93.025,1.385.049.259.014.525.028.785.037,1.211.043,2.318.091,3.383.147-.131-.137-.259-.284-.382-.425-.149-.17-.3-.346-.461-.505a17.5,17.5,0,0,0-1.525-1.36A18.894,18.894,0,0,0,75.02,18.4c-.312-.153-.631-.3-.939-.448a22.55,22.55,0,0,1-2.65-1.394,10.287,10.287,0,0,1-1.946-1.678,16.751,16.751,0,0,1-5.176,10.455c-3.407,3.279-7.967,4.608-11.192,5.144a26.785,26.785,0,0,1-4.381.366,23.4,23.4,0,0,1-8.02-1.368,21.689,21.689,0,0,1-5.738-3.128,1.457,1.457,0,0,1-.087.337,2.308,2.308,0,0,1-.22.394l-.152.222c-.092.134-.192.276-.3.408a1.3,1.3,0,0,1-1.032.45h-.007a1.183,1.183,0,0,1-.943-.478,1.171,1.171,0,0,1-.2-1.027,1.353,1.353,0,0,1,.844-.936c.134-.057.269-.1.419-.154l.106-.036a3.026,3.026,0,0,1,.431-.123,19.267,19.267,0,0,1-2.278-2.377A19.447,19.447,0,0,1,28.7,18.354a9.179,9.179,0,0,1-.7-5.332.148.148,0,0,1,.127-.11,1.155,1.155,0,0,1,.357-.654,3.18,3.18,0,0,0-.371-.074c-.3.066-.624.133-1.026.21-.315.169-.633.342-.941.51l-.007,0c-.955.521-1.943,1.059-2.958,1.529a46.748,46.748,0,0,0-4.2,2.138,22.342,22.342,0,0,0-6.851,6.274A53.69,53.69,0,0,0,4.807,37.59c-.435,1.316-.833,2.676-1.182,4.041a6.267,6.267,0,0,1,2.163-1.22A.625.625,0,0,1,6,40.374a.906.906,0,0,1,.737.425.733.733,0,0,1,.115.426.857.857,0,0,1-.62.815,15.659,15.659,0,0,0-2.114.6l-.006,0-.446.148a.456.456,0,0,1-.142.024.368.368,0,0,1-.183-.048A60.556,60.556,0,0,0,1.8,53.566a57.644,57.644,0,0,0,.281,9.26,4.375,4.375,0,0,1,.806-.3c.353-.082.713-.184,1.1-.311a.861.861,0,0,1,.268-.045.842.842,0,0,1,.785.794.784.784,0,0,1-.6.9c-.422.1-.817.182-1.207.24a2.73,2.73,0,0,1-.4.029A3.672,3.672,0,0,1,2.238,64.087ZM71.595,37.855a30.557,30.557,0,0,0-8.577,1.6l-.634.19c-1.3.391-2.385.731-3.467,1.12a8.2,8.2,0,0,0-3.253,2.181c-.316.333-.634.674-.942,1-.709.759-1.441,1.543-2.2,2.284-.622.611-1.3,1.258-2.071,1.981a2.159,2.159,0,0,0-.371.713,3.436,3.436,0,0,0-.058,1.438c.06.543.1,1.1.141,1.633.052.71.106,1.443.207,2.16a12.866,12.866,0,0,0,.875,3.453,6.4,6.4,0,0,0,.724,1.224l.229.3c.088.114.205.263.329.4a.806.806,0,0,1,.622-.318.758.758,0,0,1,.088.005,5.568,5.568,0,0,0,.652.042,4.491,4.491,0,0,0,1.05-.128c.31-.072.622-.155.925-.234l.47-.122c.254-.065.512-.129.762-.191.652-.162,1.324-.328,1.976-.522l.155-.047a5.881,5.881,0,0,0,1.908-.9,3.514,3.514,0,0,0,.878-1.142,6.166,6.166,0,0,1,.456-.723c.776-1.014,2.248-1.251,3.546-1.46.435-.07.845-.136,1.217-.227a6.682,6.682,0,0,0,3.4-1.737l.051-.056a.4.4,0,0,1,.179-.439l.033-.019a.372.372,0,0,1,.182-.046h.007a4.37,4.37,0,0,0,.234-.379.09.09,0,0,1,.08-.052.111.111,0,0,1,.083.041.109.109,0,0,1,.025.09c-.01.052-.022.1-.034.152l-.009.039a7.834,7.834,0,0,1,1.93-.182l.386,0h0l.355,0,1.131,0a4.629,4.629,0,0,0,.513-.024l.027-.011.024-.011h-.009c-.005,0-.009,0-.01,0s0-.016.014-.032c.051-.068.1-.14.16-.219.163-.227.329-.475.539-.806a49.33,49.33,0,0,1-5.791,1.034,49.284,49.284,0,0,1-6.271.458.417.417,0,0,1-.431-.427.441.441,0,0,1,.431-.466c2.107-.081,4.368-.2,6.624-.487,1.109-.143,2.253-.328,3.4-.548.425-.081.863-.17,1.3-.265l.324-.071c.042-.009.1-.019.167-.031a2.634,2.634,0,0,0,.893-.267l.165-.284c-.015-.193-.311-.29-.878-.29h-.358l-.925,0-.6,0h-.436c-.9,0-1.807-.007-2.685-.014l-.252,0c-.571,0-1.152-.013-1.714-.022-.845-.013-1.717-.026-2.574-.026-.917,0-1.721.015-2.459.047h-.021a.6.6,0,0,1-.545-.5.488.488,0,0,1,.275-.577A24.207,24.207,0,0,1,70.883,45.7h.01l.838-.1a31.374,31.374,0,0,0,3.976-.686l.322-.082a7.1,7.1,0,0,0,2.416-.968,8.322,8.322,0,0,0-2.757-.4c-.225-.008-.438-.015-.646-.027l-.082,0c-1.5-.092-3.018-.14-4.524-.142h-.171c-2.611,0-5.414.078-9.09.252h0a.065.065,0,0,1-.063-.062.063.063,0,0,1,.048-.073,48.947,48.947,0,0,1,9.636-1.077c.4-.006.8-.009,1.2-.009,1.109,0,2.231.025,3.335.074l.554.025.219.009a6.381,6.381,0,0,1,3.574.839.592.592,0,0,1,.264.43c1.313-2.618,2.552-5.325,3.751-7.943l.012-.027.353-.771c.353-.771.708-1.556,1.051-2.316.668-1.479,1.359-3.009,2.072-4.5l.349-.729c.522-1.087.974-1.993,1.479-2.883-1.8-.241-3.763-.435-5.993-.592-1.425-.1-5.344-.3-7.443-.3a8.376,8.376,0,0,0-1.213.053c-.821.159-1.231,1.018-1.593,1.775-.072.152-.141.295-.211.428C71.6,27.71,70.7,29.6,69.839,31.422l-.074.157c-.2.428-.4.865-.6,1.287l-.224.483a.906.906,0,0,1-.063.137c-.627,1.35-1.176,2.471-1.814,3.555.632-.119,1.259-.217,1.863-.292a3.988,3.988,0,0,1,.443-1.57c.046-.107.089-.207.126-.3l.017-.042c.04-.1.08-.214.123-.332a2.863,2.863,0,0,1,1.023-1.628.33.33,0,0,1,.152-.038.311.311,0,0,1,.3.3,3.019,3.019,0,0,1-.677,1.623c-.107.165-.209.321-.29.465-.2.363-.4.727-.59,1.081-.024.046-.047.091-.069.136-.046.091-.087.175-.136.254.387-.041.694-.069.966-.088l.21-.014c.288-.019.668-.041,1.048-.041a5.076,5.076,0,0,1,2.5.53,2.07,2.07,0,0,1,.965,2.781c-.661,1.276-2.046,1.489-3.528,1.609-1.594.128-3.211.36-4.774.583l-.2.028a22.308,22.308,0,0,0-2.794.649c-.716.2-1.455.4-2.2.548l-.03,0a.151.151,0,0,1-.145-.11.133.133,0,0,1,.065-.155,17.262,17.262,0,0,1,3.989-1.573l.428-.13.12-.037c.168-.051.338-.105.5-.158h0a14.122,14.122,0,0,1,1.915-.51c.8-.135,1.615-.246,2.433-.33l.079-.007c.1-.008.217-.015.341-.023.811-.049,2.037-.124,2.533-.692A.872.872,0,0,0,74,38.9c-.068-.934-1.657-1.033-2.143-1.041Zm4.289,9.465a4.25,4.25,0,0,1,1.532.21,1.4,1.4,0,0,1,.372.215c.6-1.073,1.2-2.188,1.821-3.409a6.879,6.879,0,0,1-3.078,1.541,26.978,26.978,0,0,1-3.89.789l-1.041.145h0c-.9.123-1.821.251-2.723.4l.87.01h.007c.639.007,1.3.014,1.948.026,1.255.023,2.289.047,3.253.075.08,0,.168,0,.268,0l.335,0h.01Zm-1.4,40.15a1.06,1.06,0,0,1-1.075-1.043A4.1,4.1,0,0,1,74.935,83.3a.432.432,0,0,1,.262-.09.669.669,0,0,1,.559.425,4.074,4.074,0,0,1-.356,3.335A1.075,1.075,0,0,1,74.486,87.47Zm5.471-.126a.391.391,0,0,1-.372-.289,14.371,14.371,0,0,1-.565-3.072v-.006c-.023-.21-.047-.427-.072-.64-.123-1.032-.2-2.087-.283-3.108l-.031-.4-.028-.35c-.206-2.593-.37-5.19-.487-7.72s-.191-5.12-.22-7.729c-.013-1.129,0-2.312.052-3.516l.015-.351c.012-.276.02-.562.027-.839a14.586,14.586,0,0,1,.257-2.822.124.124,0,0,1,.126-.094.126.126,0,0,1,.127.094,15.09,15.09,0,0,1,.293,2.684c.014.28.028.568.047.848l.009.129c.1,1.385.176,2.65.229,3.867.106,2.425.238,4.985.392,7.609.072,1.233.152,2.5.237,3.771a7.338,7.338,0,0,1,.816-.389,3.045,3.045,0,0,1,1.176-.186h.109a.908.908,0,0,1,.893,1.031.884.884,0,0,1-.936.773,1.3,1.3,0,0,1-.2-.016c-.222-.035-.448-.077-.666-.119-.37-.07-.752-.142-1.13-.179.073,1.053.141,2.007.21,2.914.043.568.093,1.145.14,1.7.061.706.123,1.435.173,2.152.008.117.017.234.026.351v.017a5.182,5.182,0,0,1,1.071-.373l.1-.027.112-.031.147-.043h0a3.6,3.6,0,0,1,.988-.2,1.215,1.215,0,0,1,.74.231.794.794,0,0,1,.342.544.746.746,0,0,1-.2.58,1.488,1.488,0,0,1-1.217.456c-.151,0-.307-.008-.457-.017l-.217-.011-.364-.014a4.33,4.33,0,0,1-.977-.122,13.036,13.036,0,0,1-.014,2.5A.435.435,0,0,1,79.957,87.344Zm-53-1.231a1.514,1.514,0,0,1-.625-.142A3.358,3.358,0,0,1,25.1,84.929L25,84.8l-.01-.013a1.859,1.859,0,0,1-.368-.607,1.889,1.889,0,0,1-.013-.659l0-.039a.359.359,0,0,1,.31-.345l.033,0c.083.011.168.014.25.018a2.434,2.434,0,0,1,.295.024,1.477,1.477,0,0,1,.423.162c.071.036.145.074.221.1a5.964,5.964,0,0,0,.678.21c.144.038.291.078.433.123a1.26,1.26,0,0,1,.765.665,1.167,1.167,0,0,1,.011.951A1.121,1.121,0,0,1,26.957,86.113ZM61.85,83.266a3.5,3.5,0,0,1-1.775-.722c-.127-.08-.246-.156-.366-.227l-.04-.023-.29-.167a4.362,4.362,0,0,1-1.687-1.379.428.428,0,0,1-.009-.393.333.333,0,0,1,.251-.2,2.868,2.868,0,0,1,.4-.028,5.364,5.364,0,0,1,1.793.411l.182.064.064.022c.15.052.31.1.48.151a2.9,2.9,0,0,1,1.911,1.143.987.987,0,0,1,.022.847.812.812,0,0,1-.552.456A1.579,1.579,0,0,1,61.85,83.266ZM46.591,78.6a1.4,1.4,0,0,1-1.189-.752,1.218,1.218,0,0,1,.025-1.278,4.255,4.255,0,0,1,2.254-1.42l.3-.111a16.7,16.7,0,0,0,2.188-1.088l.29-.162a.426.426,0,0,1,.209-.057.447.447,0,0,1,.4.281.4.4,0,0,1-.092.45l-.517.517A14.443,14.443,0,0,0,49.1,76.5l-.1.135-.105.144a4.282,4.282,0,0,1-1.949,1.767A1.2,1.2,0,0,1,46.591,78.6ZM12.957,74.894a1.37,1.37,0,0,1-.94-.376,1.309,1.309,0,0,1-.2-1.537,3.778,3.778,0,0,1,1.072-1.17c.164-.136.318-.265.459-.4l.046-.044c.2-.192.4-.366.6-.534a6.293,6.293,0,0,0,1.008-.99.448.448,0,0,1,.362-.169.42.42,0,0,1,.345.159.335.335,0,0,1,.025.319c-.138.373-.253.773-.375,1.2a5.852,5.852,0,0,1-1.81,3.366A1.019,1.019,0,0,1,12.957,74.894Zm58.973-.107a1.094,1.094,0,0,1-.756-1.84,5.7,5.7,0,0,1,1.937-1.135c.117-.05.238-.1.354-.152l.181-.081a4.038,4.038,0,0,1,1.374-.332.7.7,0,0,1,.582.208.24.24,0,0,1,.041.054.493.493,0,0,1,0,.5A5.721,5.721,0,0,1,74.25,73.5l-.064.048c-.118.087-.237.178-.352.267a4.814,4.814,0,0,1-1.613.935A1.11,1.11,0,0,1,71.929,74.786ZM34.7,65.815a1.15,1.15,0,0,1-.521-.133,6.3,6.3,0,0,1-2.752-2.711.367.367,0,0,1,.008-.372.375.375,0,0,1,.317-.192.35.35,0,0,1,.184.054,12.736,12.736,0,0,0,3.052,1.3,1.072,1.072,0,0,1,.771,1.014l0,.07a.826.826,0,0,1-.139.461A1.153,1.153,0,0,1,34.7,65.815Zm27.095-.44a3.419,3.419,0,0,1-2.006-1.221l-.025-.025a4,4,0,0,1-1.2-2.121.19.19,0,0,1,.038-.157.169.169,0,0,1,.132-.058.222.222,0,0,1,.041,0,6.166,6.166,0,0,1,2.182.963c.186.121.372.25.552.374s.344.239.519.352a1.27,1.27,0,0,1,.678,1.067.805.805,0,0,1-.588.773A1.035,1.035,0,0,1,61.792,65.375Zm23.477-.867a2.769,2.769,0,0,1-1.713-1l-.037-.042c-.06-.07-.122-.139-.187-.212a5.182,5.182,0,0,1-.712-.931,7.219,7.219,0,0,1-.407-.98c-.031-.088-.063-.174-.094-.26a.477.477,0,0,1,.058-.449.647.647,0,0,1,.517-.268.514.514,0,0,1,.265.07c.135.079.276.155.412.228a6.7,6.7,0,0,1,.737.437c.214.153.418.327.616.495.107.091.216.184.328.274l.156.123a2.566,2.566,0,0,1,1.029,1.636.8.8,0,0,1-.323.648A1.007,1.007,0,0,1,85.269,64.508ZM72.633,58.673h-.021a.968.968,0,0,1-.756-.313,1.079,1.079,0,0,1-.275-1.04A4.483,4.483,0,0,1,73.474,54.9a.439.439,0,0,1,.214-.053.409.409,0,0,1,.417.31c.011.056.024.112.038.171a2.219,2.219,0,0,1,.075.482,2.482,2.482,0,0,1-.089.553c-.019.08-.037.155-.051.23a4.765,4.765,0,0,1-.542,1.553A1.073,1.073,0,0,1,72.633,58.673ZM27.776,55.259a4.51,4.51,0,0,1-2.259-.655.5.5,0,0,1-.175-.666,3.5,3.5,0,0,1,2.736-1.685c.051,0,.1,0,.152.006a1.491,1.491,0,0,1,1.415,1.313,1.427,1.427,0,0,1-1.026,1.562A2.679,2.679,0,0,1,27.776,55.259Zm-14.771-1.3a1.076,1.076,0,0,1-.28-.037,8.412,8.412,0,0,1-2.347-1.25l-.161-.109-.139-.093-.059-.039a5.047,5.047,0,0,1-.892-.686,6.163,6.163,0,0,1-.608-.8l-.125-.185a.191.191,0,0,1-.013-.205.264.264,0,0,1,.225-.136.219.219,0,0,1,.047.005c.153.034.314.06.469.086a6,6,0,0,1,.749.158,6.805,6.805,0,0,1,.665.255c.17.072.344.146.518.207.342.12.7.217,1.046.311a10.573,10.573,0,0,1,1.472.477,1.064,1.064,0,0,1,.543.948l-.007.08a1.057,1.057,0,0,1-.142.474A1.134,1.134,0,0,1,13.005,53.962Zm28.079-3.655c-.642,0-1.278-.89-1.348-.991a6.123,6.123,0,0,1-.876-1.94.348.348,0,0,1,.055-.311.4.4,0,0,1,.312-.152.367.367,0,0,1,.254.1c.224.209.456.414.68.613.309.274.628.557.931.852l.035.035c.236.237.964,1.052.431,1.584A.657.657,0,0,1,41.084,50.307ZM28.95,39.771a1.31,1.31,0,0,1-1.2-1.052.986.986,0,0,1,.573-1.169,22.062,22.062,0,0,1,2.562-1.04c.146-.046.292-.1.434-.144h0a5.41,5.41,0,0,1,1.75-.389,2.794,2.794,0,0,1,.286.015.359.359,0,0,1,.283.184.3.3,0,0,1-.011.29,4.629,4.629,0,0,1-1.47,1.425l0,0c-.091.065-.185.133-.277.2l-.059.044a21.425,21.425,0,0,1-2.294,1.475A1.172,1.172,0,0,1,28.95,39.771ZM49.58,36.721a.908.908,0,0,1-.317-.061c-1.152-.43-2.39-.886-3.633-1.315a.4.4,0,0,1-.253-.452.316.316,0,0,1,.323-.28h.029c1.291.085,2.582.142,3.785.19a.873.873,0,0,1,.9.935A.927.927,0,0,1,49.58,36.721ZM16.146,33.7H16.1a5.29,5.29,0,0,1-2.531-.906,5.213,5.213,0,0,1-1.584-1.566.251.251,0,0,1-.029-.259.385.385,0,0,1,.3-.214c.163-.017.328-.042.489-.066.207-.031.42-.064.63-.078.042,0,.087,0,.132,0a4.331,4.331,0,0,1,.561.049c.1.013.194.026.291.035l.348.034a6.8,6.8,0,0,1,2.076.452,1.136,1.136,0,0,1,.643,1.344A1.4,1.4,0,0,1,16.146,33.7Zm58.319-3.239a.885.885,0,0,1-.727-.409,2.26,2.26,0,0,1,.2-2.441l.123-.221a5.691,5.691,0,0,1,.8-1.149l.006-.034a.944.944,0,0,1,1.653-.579.986.986,0,0,1,.2.83,8.214,8.214,0,0,1-1.51,3.594A.935.935,0,0,1,74.465,30.461Zm-49.343-7.8a1,1,0,0,1-1.041-.788l-.018-.1-.016-.086a2.54,2.54,0,0,1-.042-1.133,3.623,3.623,0,0,1,.351-.762l0,0,.061-.111.032-.059A5.972,5.972,0,0,1,25.7,18.082a.658.658,0,0,1,.436-.163.545.545,0,0,1,.56.426,5.771,5.771,0,0,1,.136,2.029c-.011.078-.021.16-.03.239a3.153,3.153,0,0,1-.179.846,2.778,2.778,0,0,1-.671.859l-.039.039A1.133,1.133,0,0,1,25.122,22.66ZM71.84,21.38a1.533,1.533,0,0,1-.961-.488l-.049-.041a3.818,3.818,0,0,0-1.033-.608.443.443,0,0,1-.271-.493.358.358,0,0,1,.377-.294h.114c.582.012,2.482.141,2.491,1.316a.61.61,0,0,1-.441.58A1.011,1.011,0,0,1,71.84,21.38Z" transform="translate(0 1.588)"/></g><g transform="translate(31.071 2.58)"><path d="M46.883,21.5A40.3,40.3,0,0,0,43.51,10.67c-3.366-7.13-11.072-8.111-17.98-9.581C18.713.1,11.495-.8,4.781,1.181,1.006,2.106-.468,6.6.128,10.151a27.891,27.891,0,0,0,2.2,6.354A35.584,35.584,0,0,1,5.121,29.777C5,32.755,4.584,36.154,8,37.415c3.255,1.619,3.53,6.009,7.606,8.5,1.648,3.34,6.138,3.634,9.369,4.408,2.042.391,4.108.679,6.179.865,6,.769,10.794-.97,13.933-6.314,2.1-3.252,3.665-7.008,3.278-10.949C47.985,29.774,47.344,25.645,46.883,21.5Z" transform="translate(3.661 7.815)" fill="#fff"/><path d="M35.9,60.21a14.612,14.612,0,0,1-7.428-1.875.78.78,0,0,1-.4-.905.925.925,0,0,1,.87-.68.95.95,0,0,1,.4.093,16.475,16.475,0,0,0,5.87,1.67c.362.025.729.038,1.091.038a14.971,14.971,0,0,0,4.9-.814,13.964,13.964,0,0,0,4.36-2.473,15.109,15.109,0,0,0,3.277-3.8,14.326,14.326,0,0,0,1.81-4.571,22.525,22.525,0,0,0,.2-6.158l-.01-.14c-.355-4.672-.778-8.428-1.331-11.818a63.332,63.332,0,0,0-2.554-10.145,6.054,6.054,0,0,0-1.46-.953c-1.478-.062-2.972-.093-4.441-.093-2.386,0-4.789.083-7.143.245A96.931,96.931,0,0,0,24.1,19.01l-.348.061c-.159.028-.326.054-.487.08a7.225,7.225,0,0,0-1.708.411,1.735,1.735,0,0,0-.963,1.316,22.746,22.746,0,0,0-.481,4.506l-.006.138c-.027.651-.015,1.315,0,1.958.014.83.029,1.688-.038,2.526a5.158,5.158,0,0,1-1.342,3.418,5.4,5.4,0,0,1-1.119.78c-.169.1-.344.2-.513.307a.834.834,0,0,0-.466.9,5.217,5.217,0,0,0,.19.833c.209.74.426,1.506-.182,2.081a.423.423,0,0,1-.287.112.356.356,0,0,1-.266-.112,5.521,5.521,0,0,0-.912-.738c-.111-.078-.226-.158-.333-.237a.169.169,0,0,1-.07-.191.163.163,0,0,1,.155-.113.2.2,0,0,1,.081.018c.122.055.248.116.37.174.138.067.28.135.423.2a4.88,4.88,0,0,0-2.149-.875,3.861,3.861,0,0,0-.752-.074c-.115,0-.232.005-.346.015-.288.138-.583.264-.833.37-.319.134-.671.269-1.075.413a4.612,4.612,0,0,0-1.591,4.309,3.5,3.5,0,0,0,1.336,2.4,3.813,3.813,0,0,0,1.719.488,4.79,4.79,0,0,1,1.442.327,4.343,4.343,0,0,1,1.93,2.2l.178.375A15.418,15.418,0,0,0,17,49.779a11.97,11.97,0,0,0,2.225,2.337A11.174,11.174,0,0,0,20.507,53l.122.072a1.277,1.277,0,0,1,.805,1.078.554.554,0,0,1-.272.475.975.975,0,0,1-.535.16,2.441,2.441,0,0,1-1.253-.55l-.144-.1a14.042,14.042,0,0,1-1.745-1.368,13.557,13.557,0,0,1-2.613-3.3,10.341,10.341,0,0,1-.474-1.018A5.221,5.221,0,0,0,13.223,46.5a2.675,2.675,0,0,0-1.547-.491c-.1-.011-.2-.022-.3-.034a4.546,4.546,0,0,1-1.665-.487c-2.125-1.181-2.726-4.037-2.222-6.248a6.6,6.6,0,0,1,.353-1.085,1.052,1.052,0,0,1-.172.014,1.33,1.33,0,0,1-1.061-.578,1,1,0,0,1-.126-.948c.018-.046.038-.09.058-.133l.022-.048a2.714,2.714,0,0,1-1.128-1.543,2.448,2.448,0,0,1-.062-1.05,1.711,1.711,0,0,1-.6-.69,2.106,2.106,0,0,1-1.014-.9,1.636,1.636,0,0,1-.034-1.575c-.033-.06-.065-.122-.1-.184a2.835,2.835,0,0,1-1.393-2.529,2.585,2.585,0,0,1,.24-.938c-.012-.037-.023-.074-.032-.108A2.841,2.841,0,0,1,.917,25.178a2.528,2.528,0,0,1,.538-2.235,2.144,2.144,0,0,1-.906-2.416,3.014,3.014,0,0,1,.622-1.232.242.242,0,0,0-.006-.033L1.1,19.208C.034,18.368-.258,17.446.228,16.465a2.452,2.452,0,0,1,1.021-1.084l.021-.066a2.977,2.977,0,0,1-.194-2.1A2.492,2.492,0,0,1,2.154,11.78a2.987,2.987,0,0,1,.025-.889,2.258,2.258,0,0,1,.749-1.342c.014-.067.032-.136.054-.21a3.753,3.753,0,0,1,.664-1.232,1.032,1.032,0,0,1,.822-.4,2.963,2.963,0,0,1,.047-.8A2.741,2.741,0,0,1,6,4.938a1.869,1.869,0,0,1,.772-.164,2.028,2.028,0,0,1,.217.012,1.942,1.942,0,0,1,1.489-1.1,2.7,2.7,0,0,1,.373-.027,2.372,2.372,0,0,1,.35.026,4.193,4.193,0,0,1,.393-.159c.09-.032.183-.061.273-.09a2.867,2.867,0,0,1,1.191-.875,2.22,2.22,0,0,1,.81-.153,2.311,2.311,0,0,1,.79.141l.158-.033a2,2,0,0,1,1.7-.964,2.393,2.393,0,0,1,1.473.554l.009,0a1.561,1.561,0,0,1,1.495-1.042l.079,0a1.977,1.977,0,0,1,1.311.627c.2-.025.416-.049.587-.068a5.139,5.139,0,0,1,.694-.675A.952.952,0,0,1,20.753.72a.8.8,0,0,1,.674.388c.064.1.124.2.182.294l.01.016L21.9,1.4A1.777,1.777,0,0,1,23.306.624h.066a1.5,1.5,0,0,1,1.217.646c.317-.007.543-.011.757-.015a4.633,4.633,0,0,1,1.036-.89.755.755,0,0,1,.4-.11.835.835,0,0,1,.592.239,6.6,6.6,0,0,1,.463.54,2.54,2.54,0,0,1,1.4-.792A.678.678,0,0,1,29.763,0a1,1,0,0,1,.67.291,2.387,2.387,0,0,1,.6.274A6.779,6.779,0,0,1,31.9.516c.137,0,.282,0,.444.009a2.274,2.274,0,0,1,.332-.152,2.577,2.577,0,0,1,.885-.164,2.4,2.4,0,0,1,1.35.429A1.517,1.517,0,0,1,35.975.2l.1,0a1.464,1.464,0,0,1,1.005.5A1.6,1.6,0,0,1,38.3.008c.056,0,.113-.006.17-.006a3.078,3.078,0,0,1,1.876.712A1.768,1.768,0,0,1,41.679.089a2.168,2.168,0,0,1,.386-.034,2.242,2.242,0,0,1,.65.1,2.838,2.838,0,0,1,1.228.764A2.575,2.575,0,0,1,45.716.094c.048,0,.1,0,.144.005a2.62,2.62,0,0,1,2.133,1.649,4.9,4.9,0,0,1,1.757,1.165l.055.06L49.829,3a2.546,2.546,0,0,1,.75.428,2.11,2.11,0,0,1,.635,2.29c.029.118.056.248.087.408a2.2,2.2,0,0,1,1.616,1.113,2.874,2.874,0,0,1-.132,2.813,3.76,3.76,0,0,1-.811.911,2.313,2.313,0,0,1-.386,2.412,3.138,3.138,0,0,1-.5.609,1.921,1.921,0,0,1-.917,2.132l-.064.161-.033.08c-.007.027-.015.055-.023.081l-.006.019a1.643,1.643,0,0,1-.308.857,6.657,6.657,0,0,1-.441.542,3.516,3.516,0,0,0-.7,1.032l-.026.069a.7.7,0,0,1-.627.454.508.508,0,0,1-.151-.023A30.93,30.93,0,0,1,49.8,24.872,55.214,55.214,0,0,1,51,30.592c.286,1.777.525,3.651.733,5.728l.188,1.909c.158,1.621.311,3.35.313,5.1a17.162,17.162,0,0,1-3.462,10.618A15.938,15.938,0,0,1,39.8,59.77,17.336,17.336,0,0,1,35.9,60.21ZM11.342,17.556a.369.369,0,0,0-.36.249,1.315,1.315,0,0,0,.7,1.68.488.488,0,0,0,.193.042.347.347,0,0,0,.308-.174.4.4,0,0,0,.028-.313.3.3,0,0,0-.159-.189.6.6,0,0,1-.37-.822l.01-.031a.3.3,0,0,0-.027-.292A.39.39,0,0,0,11.342,17.556Zm-6.034-1.38h0a.365.365,0,0,0-.243.1,1.306,1.306,0,0,0-.509,1.138,1.474,1.474,0,0,0,.795,1.02.355.355,0,0,0,.185.055A.38.38,0,0,0,5.88,18.2a.341.341,0,0,0-.16-.4l-.045-.028a.728.728,0,0,1-.4-.457c-.031-.227.171-.405.3-.523a.309.309,0,0,0,.1-.354.412.412,0,0,0-.372-.26Zm2.133-5.62a.33.33,0,0,0-.192.067,1.379,1.379,0,0,0-.666,1.031,1.5,1.5,0,0,0,.486,1.127.332.332,0,0,0,.243.113.4.4,0,0,0,.347-.244.345.345,0,0,0-.072-.387.772.772,0,0,1-.258-.57.594.594,0,0,1,.264-.419l.025-.018a.378.378,0,0,0,.14-.435.352.352,0,0,0-.318-.265Zm6.8,31.364a.822.822,0,0,1-.666-.335c-.1-.134-.2-.269-.292-.4a6.456,6.456,0,0,0-.8-.976,4.59,4.59,0,0,0-.449-.36,2.2,2.2,0,0,1-.766-.785.034.034,0,0,1,.012-.047,1.051,1.051,0,0,1,.526-.13,3.271,3.271,0,0,1,1.362.433A4.45,4.45,0,0,1,14.917,40.8a.676.676,0,0,1,.06.712A.852.852,0,0,1,14.237,41.92Z" transform="translate(0 0)"/></g></g><g transform="translate(332.035 531.286)"><path d="M13.262,23.493a4.93,4.93,0,0,1-1.389-.2A5.114,5.114,0,0,1,9.5,21.759a3.419,3.419,0,0,1-.91-2.284.376.376,0,0,1,.089-.239A.423.423,0,0,1,8.9,19.1a.437.437,0,0,1,.1-.011.4.4,0,0,1,.162.034.346.346,0,0,1,.171.169c.08.1.185.242.291.374a4.609,4.609,0,0,0,2.709,1.939,3.224,3.224,0,0,0,.69.075,3.384,3.384,0,0,0,1.165-.21,3.961,3.961,0,0,0,1.631-1.145A.877.877,0,0,1,16.488,20h.006a1.026,1.026,0,0,1,.709.313,1.1,1.1,0,0,1,.331.721.962.962,0,0,1-.274.708,5.549,5.549,0,0,1-2.518,1.541A5.332,5.332,0,0,1,13.262,23.493Zm1.5-7h0a5.909,5.909,0,0,1-3.412-1.36.748.748,0,0,1-.221-.867.912.912,0,0,1,.794-.637.687.687,0,0,1,.374.115l.127.1a4.767,4.767,0,0,0,2.537,1.242,1.516,1.516,0,0,0,1.129-.5,1.665,1.665,0,0,0,.317-1.341,2.533,2.533,0,0,0-.674-1.191,4.956,4.956,0,0,0-1.02-.823.315.315,0,0,1-.086-.363.47.47,0,0,1,.458-.325.643.643,0,0,1,.108.01,3.024,3.024,0,0,1,2.012,1.178,2.956,2.956,0,0,1,.517,1.976,3.155,3.155,0,0,1-.861,1.93A2.852,2.852,0,0,1,14.762,16.5ZM2.706,11.664a.607.607,0,0,1-.175-.026.366.366,0,0,1-.239-.206,3.022,3.022,0,0,1,.147-2.2A4.471,4.471,0,0,1,4.051,7.207a2.8,2.8,0,0,1,1.328-.342,2.663,2.663,0,0,1,1.28.33,4.846,4.846,0,0,1,1.57,1.638l.044.064c.076.11.155.225.235.335a.8.8,0,0,1,.135.747.966.966,0,0,1-.549.566,1.05,1.05,0,0,1-.4.083.923.923,0,0,1-.361-.072.968.968,0,0,1-.52-.549,2.883,2.883,0,0,0-.992-1.315,1.106,1.106,0,0,0-.6-.187,1.119,1.119,0,0,0-.464.106A3.469,3.469,0,0,0,3.514,9.844a2.415,2.415,0,0,0-.406,1.44A.326.326,0,0,1,3,11.558a.413.413,0,0,1-.23.1A.543.543,0,0,1,2.706,11.664ZM20.964,9.888a.784.784,0,0,1-.227-.037.857.857,0,0,1-.355-.212.7.7,0,0,1-.2-.356,1.46,1.46,0,0,0-.513-.853,1.041,1.041,0,0,0-.645-.23,1.057,1.057,0,0,0-.173.014,1.574,1.574,0,0,0-.881.528,2,2,0,0,0-.188.275l0,0a1.954,1.954,0,0,1-.366.479.357.357,0,0,1-.226.085.345.345,0,0,1-.1-.015,1.054,1.054,0,0,1-.39-.846,1.548,1.548,0,0,1,.286-.786,3.1,3.1,0,0,1,1.662-1.181,2.365,2.365,0,0,1,.495-.053,2.526,2.526,0,0,1,1.452.472A2.752,2.752,0,0,1,21.722,8.9a.909.909,0,0,1-.046.509.712.712,0,0,1-.333.37A.794.794,0,0,1,20.964,9.888ZM.432,6.533l-.027,0a.254.254,0,0,1-.133-.065A.965.965,0,0,1,0,5.672a3.443,3.443,0,0,1,.35-1.337A7.245,7.245,0,0,1,1.89,2.222,7.474,7.474,0,0,1,4.311.749,5.2,5.2,0,0,1,6.036.37l.107,0A1.817,1.817,0,0,1,7.357.848a1.06,1.06,0,0,1,.317.774,1.105,1.105,0,0,1-.319.792,2.213,2.213,0,0,1-1.416.527,6.7,6.7,0,0,0-.72.106,6.781,6.781,0,0,0-1.739.634,6.443,6.443,0,0,0-1.63,1.154c-.109.117-.214.241-.305.35s-.176.21-.271.314-.209.239-.307.358a1.471,1.471,0,0,0-.086.153c-.024.049-.044.09-.066.13-.039.073-.079.142-.116.2-.073.122-.111.151-.14.163A.313.313,0,0,1,.432,6.533Zm21.561-.276a.249.249,0,0,1-.041,0,.244.244,0,0,1-.124-.06.233.233,0,0,1-.07-.12,3.666,3.666,0,0,0-1.97-2.712,8.436,8.436,0,0,0-1.836-.616c-.182-.043-.374-.071-.56-.1a2.323,2.323,0,0,1-1.59-.67,1.294,1.294,0,0,1-.278-1,1.067,1.067,0,0,1,.58-.79A1.75,1.75,0,0,1,16.916,0a5.307,5.307,0,0,1,1.948.543l.047.02.14.059a6.4,6.4,0,0,1,2.229,1.486,4.806,4.806,0,0,1,1.146,2.114,2.534,2.534,0,0,1-.231,1.924.229.229,0,0,1-.1.092A.241.241,0,0,1,21.993,6.257Z" transform="translate(0.541 0.787)"/></g></g></svg>